REM DIRINDEX 1\3,1\4,1\5,1\6,1\2\7,1\2\8,1\2\9,1\10
REM DIRNAME cjc056,folder01,folder02,folder03,folder04,folder05,folder06,folder07,folder08,folder09
TITLE ""
FILE "1-56 Level 3-491-500.mp3" MP3
  TRACK 01 AUDIO
    TITLE "0:"
    INDEX 01 00:00:00
  TRACK 02 AUDIO
    TITLE "7:cjc056_1694"
    INDEX 01 00:00:05
  TRACK 03 AUDIO
    TITLE "0:"
    INDEX 01 00:01:13
  TRACK 04 AUDIO
    TITLE "8:cjc056_1695"
    INDEX 01 00:01:28
  TRACK 05 AUDIO
    TITLE "0:"
    INDEX 01 00:02:42
  TRACK 06 AUDIO
    TITLE "9:cjc056_1696"
    INDEX 01 00:02:55
  TRACK 07 AUDIO
    TITLE "0:"
    INDEX 01 00:04:25
  TRACK 08 AUDIO
    TITLE "7:cjc056_1697"
    INDEX 01 00:05:09
  TRACK 09 AUDIO
    TITLE "0:"
    INDEX 01 00:06:06
  TRACK 10 AUDIO
    TITLE "8:cjc056_1698"
    INDEX 01 00:06:20
  TRACK 11 AUDIO
    TITLE "0:"
    INDEX 01 00:07:23
  TRACK 12 AUDIO
    TITLE "9:cjc056_1699"
    INDEX 01 00:07:35
  TRACK 13 AUDIO
    TITLE "0:"
    INDEX 01 00:08:72
  TRACK 14 AUDIO
    TITLE "7:cjc056_1700"
    INDEX 01 00:09:51
  TRACK 15 AUDIO
    TITLE "0:"
    INDEX 01 00:10:47
  TRACK 16 AUDIO
    TITLE "8:cjc056_1701"
    INDEX 01 00:10:59
  TRACK 17 AUDIO
    TITLE "0:"
    INDEX 01 00:11:52
  TRACK 18 AUDIO
    TITLE "9:cjc056_1702"
    INDEX 01 00:11:62
  TRACK 19 AUDIO
    TITLE "0:"
    INDEX 01 00:13:33
  TRACK 20 AUDIO
    TITLE "7:cjc056_1703"
    INDEX 01 00:14:09
  TRACK 21 AUDIO
    TITLE "0:"
    INDEX 01 00:14:66
  TRACK 22 AUDIO
    TITLE "8:cjc056_1704"
    INDEX 01 00:15:15
  TRACK 23 AUDIO
    TITLE "0:"
    INDEX 01 00:16:30
  TRACK 24 AUDIO
    TITLE "9:cjc056_1705"
    INDEX 01 00:16:44
  TRACK 25 AUDIO
    TITLE "0:"
    INDEX 01 00:18:50
  TRACK 26 AUDIO
    TITLE "7:cjc056_1706"
    INDEX 01 00:19:28
  TRACK 27 AUDIO
    TITLE "0:"
    INDEX 01 00:20:24
  TRACK 28 AUDIO
    TITLE "8:cjc056_1707"
    INDEX 01 00:20:37
  TRACK 29 AUDIO
    TITLE "0:"
    INDEX 01 00:22:01
  TRACK 30 AUDIO
    TITLE "9:cjc056_1708"
    INDEX 01 00:22:13
  TRACK 31 AUDIO
    TITLE "0:"
    INDEX 01 00:24:20
  TRACK 32 AUDIO
    TITLE "7:cjc056_1709"
    INDEX 01 00:24:72
  TRACK 33 AUDIO
    TITLE "0:"
    INDEX 01 00:25:72
  TRACK 34 AUDIO
    TITLE "8:cjc056_1710"
    INDEX 01 00:26:13
  TRACK 35 AUDIO
    TITLE "0:"
    INDEX 01 00:27:26
  TRACK 36 AUDIO
    TITLE "9:cjc056_1711"
    INDEX 01 00:27:39
  TRACK 37 AUDIO
    TITLE "0:"
    INDEX 01 00:29:09
  TRACK 38 AUDIO
    TITLE "7:cjc056_1712"
    INDEX 01 00:29:62
  TRACK 39 AUDIO
    TITLE "0:"
    INDEX 01 00:31:02
  TRACK 40 AUDIO
    TITLE "8:cjc056_1713"
    INDEX 01 00:31:18
  TRACK 41 AUDIO
    TITLE "0:"
    INDEX 01 00:32:09
  TRACK 42 AUDIO
    TITLE "9:cjc056_1714"
    INDEX 01 00:32:25
  TRACK 43 AUDIO
    TITLE "0:"
    INDEX 01 00:35:00
  TRACK 44 AUDIO
    TITLE "7:cjc056_1715"
    INDEX 01 00:35:53
  TRACK 45 AUDIO
    TITLE "0:"
    INDEX 01 00:36:56
  TRACK 46 AUDIO
    TITLE "8:cjc056_1716"
    INDEX 01 00:36:72
  TRACK 47 AUDIO
    TITLE "0:"
    INDEX 01 00:38:26
  TRACK 48 AUDIO
    TITLE "9:cjc056_1717"
    INDEX 01 00:38:39
  TRACK 49 AUDIO
    TITLE "0:"
    INDEX 01 00:40:24
  TRACK 50 AUDIO
    TITLE "7:cjc056_1718"
    INDEX 01 00:41:00
  TRACK 51 AUDIO
    TITLE "0:"
    INDEX 01 00:42:02
  TRACK 52 AUDIO
    TITLE "8:cjc056_1719"
    INDEX 01 00:42:18
  TRACK 53 AUDIO
    TITLE "0:"
    INDEX 01 00:43:15
  TRACK 54 AUDIO
    TITLE "9:cjc056_1720"
    INDEX 01 00:43:29
  TRACK 55 AUDIO
    TITLE "0:"
    INDEX 01 00:45:04
  TRACK 56 AUDIO
    TITLE "7:cjc056_1721"
    INDEX 01 00:45:55
  TRACK 57 AUDIO
    TITLE "0:"
    INDEX 01 00:46:72
  TRACK 58 AUDIO
    TITLE "8:cjc056_1722"
    INDEX 01 00:47:13
  TRACK 59 AUDIO
    TITLE "0:"
    INDEX 01 00:48:30
  TRACK 60 AUDIO
    TITLE "9:cjc056_1723"
    INDEX 01 00:48:42
  TRACK 61 AUDIO
    TITLE "0:"
    INDEX 01 00:51:63
